<?xml version="1.0" encoding="UTF-8"?>
<svg id="Layer_2" data-name="Layer 2" xmlns="http://www.w3.org/2000/svg" viewBox="0 0 555.62 172.67">
  <defs>
    <style>
      .cls-1 {
        fill: #fff;
      }

      .cls-2 {
        fill: #31b77e;
      }
    </style>
  </defs>
  <g id="Layer_1-2" data-name="Layer 1">
    <g>
      <path class="cls-1" d="M113.09,50.72h-14.14l-17.09,103.78h9.94s13.52-86.85,13.83-94.77h.47c.93,9.32,14.45,94.77,14.45,94.77h10.41l-17.87-103.78Z"/>
      <path class="cls-1" d="M536.92,50.72h-14.14l-17.09,103.78h9.94s13.52-86.85,13.83-94.77h.47c.93,9.32,14.45,94.77,14.45,94.77h10.41l-17.87-103.78Z"/>
      <path class="cls-1" d="M1.67,50.72h9.94v94.93h26.1l-1.24,8.86H1.67V50.72Z"/>
      <path class="cls-1" d="M74.54,103.55h-23.3v41.95h26.41l-1.4,9.01h-34.96V50.72h34.65v9.17h-24.7v34.65h23.3v9.01Z"/>
      <path class="cls-1" d="M135.91,154.51V50.72h11.96l18.49,66.19c2.33,8.08,3.42,14.29,4.19,18.33h.31c-.62-14.14-.78-28.74-.78-45.68v-38.84h9.32v103.78h-11.5l-20.66-75.35c-1.4-5.28-2.18-9.32-2.64-12.12h-.16c.62,12.43.93,29.67.93,48.47v39h-9.48Z"/>
      <path class="cls-1" d="M208.15,125.61v5.9c0,10.25,3.57,15.69,11.19,15.69s10.88-5.28,10.88-17.71-2.64-17.4-13.52-25.79c-11.19-8.7-16.62-13.83-16.62-29.05,0-13.05,3.88-25.48,19.58-25.32,14.6.16,18.95,9.63,18.95,23.15v4.66h-9.94v-4.35c0-8.86-1.71-14.76-9.32-14.76s-9.48,6.68-9.48,15.07c0,10.25,2.02,13.83,11.65,21.13,14.14,10.88,18.64,16.78,18.64,33.87,0,14.6-3.88,27.81-20.97,27.81-16.16,0-20.97-10.72-20.97-24.39v-5.9h9.94Z"/>
      <path class="cls-1" d="M255.23,50.72v103.78h-9.94V50.72h9.94Z"/>
      <polygon class="cls-2" points="290.15 103.59 307.74 50.72 297.49 50.72 284.59 94.61 284.44 94.61 271.85 50.72 260.98 50.72 277.97 103.59 290.15 103.59"/>
      <path class="cls-1" d="M328.93,125.61v5.9c0,10.25,3.57,15.69,11.19,15.69s10.88-5.28,10.88-17.71-2.64-17.4-13.52-25.79c-11.19-8.7-16.62-13.83-16.62-29.05,0-13.05,3.88-25.48,19.58-25.32,14.6.16,18.95,9.63,18.95,23.15v4.66h-9.94v-4.35c0-8.86-1.71-14.76-9.32-14.76s-9.48,6.68-9.48,15.07c0,10.25,2.02,13.83,11.65,21.13,14.14,10.88,18.64,16.78,18.64,33.87,0,14.6-3.88,27.81-20.97,27.81-16.16,0-20.97-10.72-20.97-24.39v-5.9h9.94Z"/>
      <path class="cls-1" d="M378.11,50.72v103.78h-9.94V50.72h9.94Z"/>
      <path class="cls-1" d="M428.35,154.51h-7.92c-.31-1.71-.62-6.84-.62-9.32-2.49,7.92-8.39,10.72-15.23,10.72-14.14,0-18.8-10.56-18.8-26.88v-52.67c0-17.09,6.99-27.03,21.6-27.03,17.25,0,20.82,12.12,20.82,25.79v2.49h-9.94v-2.64c0-7.77-.78-16.62-10.88-16.62-7.61,0-11.5,4.82-11.5,17.4v53.6c0,10.57,2.8,17.71,10.72,17.71,10.1,0,11.81-9.48,11.81-23.46v-16.78h-12.12v-8.7h22.06v56.4Z"/>
      <path class="cls-1" d="M488.66,110.07c0-19.27.31-39.46.62-50.34h-.16c-2.64,17.25-11.03,63.7-16.93,94.77h-9.79c-4.35-26.57-13.05-76.44-15.54-94.93h-.31c.31,12.12.78,35.58.78,53.45v41.48h-9.32V50.72h14.76c6.06,31.69,13.36,71.62,14.76,84.67h.16c1.71-12.58,10.1-54.84,16.16-84.67h14.45v103.78h-9.63v-44.43Z"/>
      <path class="cls-2" d="M302.43,151.65l-9.88-38.93c-1.09-3.07-3.99-5.13-7.25-5.13h-1.37c-3.23,0-6.11,2.02-7.22,5.05l-10.28,39.15c-2.01,7.65-8.92,12.98-16.83,12.98H1.68v7.9h249.44c11.78,0,21.99-8.17,24.58-19.66l7.56-33.61c.3-.89,1.56-.89,1.85,0l7.39,33.5c2.55,11.55,12.78,19.77,24.6,19.77h238.51v-7.9h-236.32c-7.96,0-14.91-5.4-16.87-13.12Z"/>
      <g>
        <path class="cls-1" d="M30.11,31.91c-3.62,4.04-7.81,6.07-12.55,6.07-2.53,0-4.88-.54-7.04-1.63-2.16-1.09-4.02-2.53-5.56-4.33-1.55-1.79-2.76-3.83-3.64-6.12-.88-2.29-1.32-4.61-1.32-6.96s.43-4.83,1.29-7.12c.86-2.29,2.06-4.31,3.59-6.06,1.53-1.76,3.34-3.16,5.43-4.19,2.09-1.04,4.39-1.56,6.88-1.56,1.9,0,3.59.2,5.09.61,1.49.4,2.82.97,3.98,1.69,1.16.72,2.17,1.58,3.03,2.58.86,1,1.59,2.1,2.19,3.3l-2.16,1.32c-1.3-2.46-3-4.25-5.09-5.35-2.09-1.11-4.46-1.66-7.09-1.66-2.21,0-4.21.47-5.99,1.42-1.78.95-3.3,2.2-4.56,3.74-1.27,1.55-2.23,3.3-2.9,5.27-.67,1.97-1,3.99-1,6.07,0,2.21.39,4.32,1.16,6.3.77,1.99,1.84,3.74,3.19,5.25,1.35,1.51,2.94,2.72,4.77,3.61,1.83.9,3.8,1.34,5.91,1.34,2.29,0,4.44-.53,6.46-1.58,2.02-1.06,4-2.71,5.93-4.96v-7.28h-8.49v-2.16h10.86v18.19h-2.37v-5.8Z"/>
        <path class="cls-1" d="M71.25,37.71V.26h15.61c1.58,0,3.04.33,4.38,1,1.34.67,2.48,1.56,3.43,2.66.95,1.11,1.7,2.36,2.24,3.74.54,1.39.82,2.79.82,4.19s-.21,2.7-.63,3.98c-.42,1.28-1.02,2.44-1.79,3.46-.77,1.02-1.71,1.86-2.79,2.53-1.09.67-2.29,1.11-3.59,1.32l9.33,14.56h-3.11l-9.07-14.13h-12.13v14.13h-2.69ZM73.94,21.1h13.13c1.2,0,2.29-.26,3.27-.79.98-.53,1.83-1.22,2.53-2.08.7-.86,1.24-1.85,1.61-2.95s.55-2.24.55-3.4-.22-2.35-.66-3.45c-.44-1.11-1.04-2.08-1.79-2.93-.76-.84-1.63-1.52-2.64-2.03s-2.08-.76-3.24-.76h-12.76v18.41Z"/>
        <path class="cls-1" d="M161.38,35.28v2.43h-24.94V.26h24.47v2.43h-21.78v14.71h19.04v2.32h-19.04v15.56h22.26Z"/>
        <path class="cls-1" d="M224.4,35.28v2.43h-24.94V.26h24.47v2.43h-21.78v14.71h19.04v2.32h-19.04v15.56h22.26Z"/>
        <path class="cls-1" d="M265.16,5.33v32.38h-2.69V.26h2.06l26.26,32.96V.32h2.69v37.39h-2.48l-25.84-32.38Z"/>
        <path class="cls-1" d="M369,28c0,1.37-.26,2.65-.79,3.82-.53,1.18-1.25,2.21-2.16,3.09-.92.88-1.99,1.56-3.22,2.06-1.23.49-2.53.74-3.9.74h-17.51V.26h17.46c1.3,0,2.48.28,3.53.84s1.95,1.29,2.69,2.19c.74.9,1.31,1.92,1.71,3.06.4,1.14.61,2.29.61,3.45,0,1.9-.47,3.64-1.42,5.22-.95,1.58-2.27,2.74-3.96,3.48,2.14.63,3.84,1.82,5.09,3.56,1.25,1.74,1.87,3.72,1.87,5.93ZM344.11,2.69v14.98h13.71c1.02,0,1.95-.21,2.79-.63.84-.42,1.57-.98,2.19-1.66.61-.69,1.1-1.48,1.45-2.4.35-.91.53-1.85.53-2.79,0-1.02-.17-1.98-.5-2.87-.33-.9-.79-1.69-1.37-2.37s-1.27-1.23-2.08-1.63c-.81-.4-1.71-.61-2.69-.61h-14.03ZM366.31,27.63c0-.98-.18-1.94-.53-2.87-.35-.93-.84-1.76-1.48-2.48s-1.38-1.29-2.24-1.71c-.86-.42-1.78-.63-2.77-.63h-15.19v15.35h14.82c1.05,0,2.03-.21,2.93-.63s1.67-.99,2.32-1.71c.65-.72,1.17-1.54,1.56-2.45.39-.91.58-1.86.58-2.85Z"/>
        <path class="cls-1" d="M429.91,35.28v2.43h-24.94V.26h24.47v2.43h-21.78v14.71h19.04v2.32h-19.04v15.56h22.26Z"/>
        <path class="cls-1" d="M466.93,37.71V.26h2.69v35.02h22.36v2.43h-25.05Z"/>
        <path class="cls-1" d="M546.46,2.69h-13.71v35.02h-2.69V2.69h-13.71V.26h30.11v2.43Z"/>
      </g>
    </g>
  </g>
</svg>